<mxfile host="Electron" agent="Mozilla/5.0 (Macintosh; Intel Mac OS X 10_15_7) AppleWebKit/537.36 (KHTML, like Gecko) draw.io/26.0.4 Chrome/128.0.6613.186 Electron/32.2.5 Safari/537.36" version="26.0.4">
  <diagram name="Pagina-1" id="6q9Ct5GJYTRPfvLkY-PJ">
    <mxGraphModel dx="1242" dy="1914" grid="1" gridSize="10" guides="1" tooltips="1" connect="1" arrows="1" fold="1" page="1" pageScale="1" pageWidth="827" pageHeight="1169" math="0" shadow="0">
      <root>
        <mxCell id="0" />
        <mxCell id="1" parent="0" />
        <mxCell id="L_b7BaTxaajNw3vjl_Nh-1" value="Category" style="swimlane;fontStyle=1;align=center;verticalAlign=top;childLayout=stackLayout;horizontal=1;startSize=26;horizontalStack=0;resizeParent=1;resizeParentMax=0;resizeLast=0;collapsible=1;marginBottom=0;whiteSpace=wrap;html=1;" parent="1" vertex="1">
          <mxGeometry x="-20" y="380" width="220" height="112" as="geometry" />
        </mxCell>
        <mxCell id="L_b7BaTxaajNw3vjl_Nh-2" value="+ Guid Id" style="text;strokeColor=none;fillColor=none;align=left;verticalAlign=top;spacingLeft=4;spacingRight=4;overflow=hidden;rotatable=0;points=[[0,0.5],[1,0.5]];portConstraint=eastwest;whiteSpace=wrap;html=1;" parent="L_b7BaTxaajNw3vjl_Nh-1" vertex="1">
          <mxGeometry y="26" width="220" height="26" as="geometry" />
        </mxCell>
        <mxCell id="L_b7BaTxaajNw3vjl_Nh-44" value="+ String name" style="text;strokeColor=none;fillColor=none;align=left;verticalAlign=top;spacingLeft=4;spacingRight=4;overflow=hidden;rotatable=0;points=[[0,0.5],[1,0.5]];portConstraint=eastwest;whiteSpace=wrap;html=1;" parent="L_b7BaTxaajNw3vjl_Nh-1" vertex="1">
          <mxGeometry y="52" width="220" height="26" as="geometry" />
        </mxCell>
        <mxCell id="L_b7BaTxaajNw3vjl_Nh-3" value="" style="line;strokeWidth=1;fillColor=none;align=left;verticalAlign=middle;spacingTop=-1;spacingLeft=3;spacingRight=3;rotatable=0;labelPosition=right;points=[];portConstraint=eastwest;strokeColor=inherit;" parent="L_b7BaTxaajNw3vjl_Nh-1" vertex="1">
          <mxGeometry y="78" width="220" height="8" as="geometry" />
        </mxCell>
        <mxCell id="L_b7BaTxaajNw3vjl_Nh-9" value="+ getAmount(): decimal" style="text;strokeColor=none;fillColor=none;align=left;verticalAlign=top;spacingLeft=4;spacingRight=4;overflow=hidden;rotatable=0;points=[[0,0.5],[1,0.5]];portConstraint=eastwest;whiteSpace=wrap;html=1;" parent="L_b7BaTxaajNw3vjl_Nh-1" vertex="1">
          <mxGeometry y="86" width="220" height="26" as="geometry" />
        </mxCell>
        <mxCell id="L_b7BaTxaajNw3vjl_Nh-5" value="Transaction" style="swimlane;fontStyle=1;align=center;verticalAlign=top;childLayout=stackLayout;horizontal=1;startSize=26;horizontalStack=0;resizeParent=1;resizeParentMax=0;resizeLast=0;collapsible=1;marginBottom=0;whiteSpace=wrap;html=1;" parent="1" vertex="1">
          <mxGeometry x="10" y="76" width="160" height="208" as="geometry" />
        </mxCell>
        <mxCell id="L_b7BaTxaajNw3vjl_Nh-46" value="+ Guid Id" style="text;strokeColor=none;fillColor=none;align=left;verticalAlign=top;spacingLeft=4;spacingRight=4;overflow=hidden;rotatable=0;points=[[0,0.5],[1,0.5]];portConstraint=eastwest;whiteSpace=wrap;html=1;" parent="L_b7BaTxaajNw3vjl_Nh-5" vertex="1">
          <mxGeometry y="26" width="160" height="26" as="geometry" />
        </mxCell>
        <mxCell id="L_b7BaTxaajNw3vjl_Nh-6" value="+ Decimal amount" style="text;strokeColor=none;fillColor=none;align=left;verticalAlign=top;spacingLeft=4;spacingRight=4;overflow=hidden;rotatable=0;points=[[0,0.5],[1,0.5]];portConstraint=eastwest;whiteSpace=wrap;html=1;" parent="L_b7BaTxaajNw3vjl_Nh-5" vertex="1">
          <mxGeometry y="52" width="160" height="26" as="geometry" />
        </mxCell>
        <mxCell id="L_b7BaTxaajNw3vjl_Nh-43" value="+ DateOnly date" style="text;strokeColor=none;fillColor=none;align=left;verticalAlign=top;spacingLeft=4;spacingRight=4;overflow=hidden;rotatable=0;points=[[0,0.5],[1,0.5]];portConstraint=eastwest;whiteSpace=wrap;html=1;" parent="L_b7BaTxaajNw3vjl_Nh-5" vertex="1">
          <mxGeometry y="78" width="160" height="26" as="geometry" />
        </mxCell>
        <mxCell id="L_b7BaTxaajNw3vjl_Nh-16" value="+ String title" style="text;strokeColor=none;fillColor=none;align=left;verticalAlign=top;spacingLeft=4;spacingRight=4;overflow=hidden;rotatable=0;points=[[0,0.5],[1,0.5]];portConstraint=eastwest;whiteSpace=wrap;html=1;" parent="L_b7BaTxaajNw3vjl_Nh-5" vertex="1">
          <mxGeometry y="104" width="160" height="26" as="geometry" />
        </mxCell>
        <mxCell id="L_b7BaTxaajNw3vjl_Nh-10" value="+ Place? place" style="text;strokeColor=none;fillColor=none;align=left;verticalAlign=top;spacingLeft=4;spacingRight=4;overflow=hidden;rotatable=0;points=[[0,0.5],[1,0.5]];portConstraint=eastwest;whiteSpace=wrap;html=1;" parent="L_b7BaTxaajNw3vjl_Nh-5" vertex="1">
          <mxGeometry y="130" width="160" height="26" as="geometry" />
        </mxCell>
        <mxCell id="L_b7BaTxaajNw3vjl_Nh-11" value="+ List&amp;lt;Tag&amp;gt;? tags" style="text;strokeColor=none;fillColor=none;align=left;verticalAlign=top;spacingLeft=4;spacingRight=4;overflow=hidden;rotatable=0;points=[[0,0.5],[1,0.5]];portConstraint=eastwest;whiteSpace=wrap;html=1;" parent="L_b7BaTxaajNw3vjl_Nh-5" vertex="1">
          <mxGeometry y="156" width="160" height="26" as="geometry" />
        </mxCell>
        <mxCell id="L_b7BaTxaajNw3vjl_Nh-49" value="+ Category category" style="text;strokeColor=none;fillColor=none;align=left;verticalAlign=top;spacingLeft=4;spacingRight=4;overflow=hidden;rotatable=0;points=[[0,0.5],[1,0.5]];portConstraint=eastwest;whiteSpace=wrap;html=1;" parent="L_b7BaTxaajNw3vjl_Nh-5" vertex="1">
          <mxGeometry y="182" width="160" height="26" as="geometry" />
        </mxCell>
        <mxCell id="L_b7BaTxaajNw3vjl_Nh-12" value="Tag" style="swimlane;fontStyle=1;align=center;verticalAlign=top;childLayout=stackLayout;horizontal=1;startSize=26;horizontalStack=0;resizeParent=1;resizeParentMax=0;resizeLast=0;collapsible=1;marginBottom=0;whiteSpace=wrap;html=1;" parent="1" vertex="1">
          <mxGeometry x="250" y="70" width="160" height="218" as="geometry" />
        </mxCell>
        <mxCell id="L_b7BaTxaajNw3vjl_Nh-47" value="+ Guid Id" style="text;strokeColor=none;fillColor=none;align=left;verticalAlign=top;spacingLeft=4;spacingRight=4;overflow=hidden;rotatable=0;points=[[0,0.5],[1,0.5]];portConstraint=eastwest;whiteSpace=wrap;html=1;" parent="L_b7BaTxaajNw3vjl_Nh-12" vertex="1">
          <mxGeometry y="26" width="160" height="26" as="geometry" />
        </mxCell>
        <mxCell id="L_b7BaTxaajNw3vjl_Nh-13" value="+ String name" style="text;strokeColor=none;fillColor=none;align=left;verticalAlign=top;spacingLeft=4;spacingRight=4;overflow=hidden;rotatable=0;points=[[0,0.5],[1,0.5]];portConstraint=eastwest;whiteSpace=wrap;html=1;" parent="L_b7BaTxaajNw3vjl_Nh-12" vertex="1">
          <mxGeometry y="52" width="160" height="26" as="geometry" />
        </mxCell>
        <mxCell id="L_b7BaTxaajNw3vjl_Nh-18" value="+ CustomColor customColor" style="text;strokeColor=none;fillColor=none;align=left;verticalAlign=top;spacingLeft=4;spacingRight=4;overflow=hidden;rotatable=0;points=[[0,0.5],[1,0.5]];portConstraint=eastwest;whiteSpace=wrap;html=1;" parent="L_b7BaTxaajNw3vjl_Nh-12" vertex="1">
          <mxGeometry y="78" width="160" height="42" as="geometry" />
        </mxCell>
        <mxCell id="L_b7BaTxaajNw3vjl_Nh-14" value="" style="line;strokeWidth=1;fillColor=none;align=left;verticalAlign=middle;spacingTop=-1;spacingLeft=3;spacingRight=3;rotatable=0;labelPosition=right;points=[];portConstraint=eastwest;strokeColor=inherit;" parent="L_b7BaTxaajNw3vjl_Nh-12" vertex="1">
          <mxGeometry y="120" width="160" height="8" as="geometry" />
        </mxCell>
        <mxCell id="L_b7BaTxaajNw3vjl_Nh-15" value="+ setColor(CustomColor color)" style="text;strokeColor=none;fillColor=none;align=left;verticalAlign=top;spacingLeft=4;spacingRight=4;overflow=hidden;rotatable=0;points=[[0,0.5],[1,0.5]];portConstraint=eastwest;whiteSpace=wrap;html=1;" parent="L_b7BaTxaajNw3vjl_Nh-12" vertex="1">
          <mxGeometry y="128" width="160" height="26" as="geometry" />
        </mxCell>
        <mxCell id="L_b7BaTxaajNw3vjl_Nh-25" value="+ setColor(String name, String hex)" style="text;strokeColor=none;fillColor=none;align=left;verticalAlign=top;spacingLeft=4;spacingRight=4;overflow=hidden;rotatable=0;points=[[0,0.5],[1,0.5]];portConstraint=eastwest;whiteSpace=wrap;html=1;" parent="L_b7BaTxaajNw3vjl_Nh-12" vertex="1">
          <mxGeometry y="154" width="160" height="38" as="geometry" />
        </mxCell>
        <mxCell id="L_b7BaTxaajNw3vjl_Nh-24" value="+ setName(String name)" style="text;strokeColor=none;fillColor=none;align=left;verticalAlign=top;spacingLeft=4;spacingRight=4;overflow=hidden;rotatable=0;points=[[0,0.5],[1,0.5]];portConstraint=eastwest;whiteSpace=wrap;html=1;" parent="L_b7BaTxaajNw3vjl_Nh-12" vertex="1">
          <mxGeometry y="192" width="160" height="26" as="geometry" />
        </mxCell>
        <mxCell id="L_b7BaTxaajNw3vjl_Nh-17" value="een transactie heeft een titel en locatie waar het geld is uitgegeven.&lt;div&gt;&lt;br&gt;&lt;/div&gt;&lt;div&gt;Een transactie kan meerdere tags hebben (bijv. eten en date). Een transactie kan 1 potje hebben.&lt;/div&gt;" style="rounded=0;whiteSpace=wrap;html=1;fillColor=#fff2cc;strokeColor=#d6b656;" parent="1" vertex="1">
          <mxGeometry x="-135" y="85" width="120" height="160" as="geometry" />
        </mxCell>
        <mxCell id="L_b7BaTxaajNw3vjl_Nh-19" value="&lt;span style=&quot;background-color: transparent; color: light-dark(rgb(0, 0, 0), rgb(255, 255, 255));&quot;&gt;CustomColor&lt;/span&gt;" style="swimlane;fontStyle=1;align=center;verticalAlign=top;childLayout=stackLayout;horizontal=1;startSize=28;horizontalStack=0;resizeParent=1;resizeParentMax=0;resizeLast=0;collapsible=1;marginBottom=0;whiteSpace=wrap;html=1;" parent="1" vertex="1">
          <mxGeometry x="470" y="112" width="160" height="106" as="geometry" />
        </mxCell>
        <mxCell id="L_b7BaTxaajNw3vjl_Nh-48" value="+ Guid Id" style="text;strokeColor=none;fillColor=none;align=left;verticalAlign=top;spacingLeft=4;spacingRight=4;overflow=hidden;rotatable=0;points=[[0,0.5],[1,0.5]];portConstraint=eastwest;whiteSpace=wrap;html=1;" parent="L_b7BaTxaajNw3vjl_Nh-19" vertex="1">
          <mxGeometry y="28" width="160" height="26" as="geometry" />
        </mxCell>
        <mxCell id="L_b7BaTxaajNw3vjl_Nh-20" value="+ String name" style="text;strokeColor=none;fillColor=none;align=left;verticalAlign=top;spacingLeft=4;spacingRight=4;overflow=hidden;rotatable=0;points=[[0,0.5],[1,0.5]];portConstraint=eastwest;whiteSpace=wrap;html=1;" parent="L_b7BaTxaajNw3vjl_Nh-19" vertex="1">
          <mxGeometry y="54" width="160" height="26" as="geometry" />
        </mxCell>
        <mxCell id="L_b7BaTxaajNw3vjl_Nh-21" value="+ String hex" style="text;strokeColor=none;fillColor=none;align=left;verticalAlign=top;spacingLeft=4;spacingRight=4;overflow=hidden;rotatable=0;points=[[0,0.5],[1,0.5]];portConstraint=eastwest;whiteSpace=wrap;html=1;" parent="L_b7BaTxaajNw3vjl_Nh-19" vertex="1">
          <mxGeometry y="80" width="160" height="26" as="geometry" />
        </mxCell>
        <mxCell id="L_b7BaTxaajNw3vjl_Nh-26" value="" style="endArrow=classic;html=1;rounded=0;" parent="1" source="L_b7BaTxaajNw3vjl_Nh-12" target="L_b7BaTxaajNw3vjl_Nh-19" edge="1">
          <mxGeometry width="50" height="50" relative="1" as="geometry">
            <mxPoint x="270" y="70.00000000000011" as="sourcePoint" />
            <mxPoint x="360" y="20" as="targetPoint" />
          </mxGeometry>
        </mxCell>
        <mxCell id="L_b7BaTxaajNw3vjl_Nh-27" value="" style="endArrow=classic;html=1;rounded=0;" parent="1" source="L_b7BaTxaajNw3vjl_Nh-5" target="L_b7BaTxaajNw3vjl_Nh-12" edge="1">
          <mxGeometry width="50" height="50" relative="1" as="geometry">
            <mxPoint x="-110" y="120.00000000000011" as="sourcePoint" />
            <mxPoint x="-60" y="70.00000000000011" as="targetPoint" />
          </mxGeometry>
        </mxCell>
        <mxCell id="L_b7BaTxaajNw3vjl_Nh-28" value="Place" style="swimlane;fontStyle=1;align=center;verticalAlign=top;childLayout=stackLayout;horizontal=1;startSize=26;horizontalStack=0;resizeParent=1;resizeParentMax=0;resizeLast=0;collapsible=1;marginBottom=0;whiteSpace=wrap;html=1;" parent="1" vertex="1">
          <mxGeometry x="10" y="-112" width="160" height="104" as="geometry" />
        </mxCell>
        <mxCell id="L_b7BaTxaajNw3vjl_Nh-45" value="+ Guid Id" style="text;strokeColor=none;fillColor=none;align=left;verticalAlign=top;spacingLeft=4;spacingRight=4;overflow=hidden;rotatable=0;points=[[0,0.5],[1,0.5]];portConstraint=eastwest;whiteSpace=wrap;html=1;" parent="L_b7BaTxaajNw3vjl_Nh-28" vertex="1">
          <mxGeometry y="26" width="160" height="26" as="geometry" />
        </mxCell>
        <mxCell id="L_b7BaTxaajNw3vjl_Nh-29" value="+ Sting name" style="text;strokeColor=none;fillColor=none;align=left;verticalAlign=top;spacingLeft=4;spacingRight=4;overflow=hidden;rotatable=0;points=[[0,0.5],[1,0.5]];portConstraint=eastwest;whiteSpace=wrap;html=1;" parent="L_b7BaTxaajNw3vjl_Nh-28" vertex="1">
          <mxGeometry y="52" width="160" height="26" as="geometry" />
        </mxCell>
        <mxCell id="L_b7BaTxaajNw3vjl_Nh-32" value="+ Tag? tag" style="text;strokeColor=none;fillColor=none;align=left;verticalAlign=top;spacingLeft=4;spacingRight=4;overflow=hidden;rotatable=0;points=[[0,0.5],[1,0.5]];portConstraint=eastwest;whiteSpace=wrap;html=1;" parent="L_b7BaTxaajNw3vjl_Nh-28" vertex="1">
          <mxGeometry y="78" width="160" height="26" as="geometry" />
        </mxCell>
        <mxCell id="L_b7BaTxaajNw3vjl_Nh-33" value="een place heeft een tag zodat je de tag automatisch kan toewijzen wanneer deze locatie geselecteerd wordt" style="rounded=0;whiteSpace=wrap;html=1;fillColor=#fff2cc;strokeColor=#d6b656;" parent="1" vertex="1">
          <mxGeometry x="-150" y="-112" width="150" height="100" as="geometry" />
        </mxCell>
        <mxCell id="L_b7BaTxaajNw3vjl_Nh-35" value="FileManager" style="swimlane;fontStyle=1;align=center;verticalAlign=top;childLayout=stackLayout;horizontal=1;startSize=26;horizontalStack=0;resizeParent=1;resizeParentMax=0;resizeLast=0;collapsible=1;marginBottom=0;whiteSpace=wrap;html=1;" parent="1" vertex="1">
          <mxGeometry x="480" y="-102" width="160" height="112" as="geometry" />
        </mxCell>
        <mxCell id="L_b7BaTxaajNw3vjl_Nh-36" value="+ String savePath" style="text;strokeColor=none;fillColor=none;align=left;verticalAlign=top;spacingLeft=4;spacingRight=4;overflow=hidden;rotatable=0;points=[[0,0.5],[1,0.5]];portConstraint=eastwest;whiteSpace=wrap;html=1;" parent="L_b7BaTxaajNw3vjl_Nh-35" vertex="1">
          <mxGeometry y="26" width="160" height="26" as="geometry" />
        </mxCell>
        <mxCell id="L_b7BaTxaajNw3vjl_Nh-38" value="" style="line;strokeWidth=1;fillColor=none;align=left;verticalAlign=middle;spacingTop=-1;spacingLeft=3;spacingRight=3;rotatable=0;labelPosition=right;points=[];portConstraint=eastwest;strokeColor=inherit;" parent="L_b7BaTxaajNw3vjl_Nh-35" vertex="1">
          <mxGeometry y="52" width="160" height="8" as="geometry" />
        </mxCell>
        <mxCell id="L_b7BaTxaajNw3vjl_Nh-39" value="+ saveChanges(): bool" style="text;strokeColor=none;fillColor=none;align=left;verticalAlign=top;spacingLeft=4;spacingRight=4;overflow=hidden;rotatable=0;points=[[0,0.5],[1,0.5]];portConstraint=eastwest;whiteSpace=wrap;html=1;" parent="L_b7BaTxaajNw3vjl_Nh-35" vertex="1">
          <mxGeometry y="60" width="160" height="26" as="geometry" />
        </mxCell>
        <mxCell id="L_b7BaTxaajNw3vjl_Nh-41" value="+ makeBackup(): bool" style="text;strokeColor=none;fillColor=none;align=left;verticalAlign=top;spacingLeft=4;spacingRight=4;overflow=hidden;rotatable=0;points=[[0,0.5],[1,0.5]];portConstraint=eastwest;whiteSpace=wrap;html=1;" parent="L_b7BaTxaajNw3vjl_Nh-35" vertex="1">
          <mxGeometry y="86" width="160" height="26" as="geometry" />
        </mxCell>
        <mxCell id="L_b7BaTxaajNw3vjl_Nh-40" value="fileManager is verantwoordelijk voor het schrijven en lezen van de bestaden.&lt;div&gt;&lt;br&gt;&lt;/div&gt;&lt;div&gt;&lt;b&gt;Opslaan:&lt;/b&gt;&lt;/div&gt;&lt;div&gt;Het slaat de gegevens lokaal op in een sqlite db.&lt;/div&gt;&lt;div&gt;&lt;br&gt;&lt;/div&gt;&lt;div&gt;&lt;b&gt;Backups:&lt;/b&gt;&lt;/div&gt;&lt;div&gt;Het kan de sqlite db opslaan in een aparte csv bestanden voor betrouwbare backups&lt;/div&gt;" style="rounded=0;whiteSpace=wrap;html=1;fillColor=#fff2cc;strokeColor=#d6b656;" parent="1" vertex="1">
          <mxGeometry x="650" y="-177" width="120" height="236" as="geometry" />
        </mxCell>
        <mxCell id="L_b7BaTxaajNw3vjl_Nh-42" value="" style="endArrow=classic;html=1;rounded=0;exitX=0.5;exitY=0;exitDx=0;exitDy=0;" parent="1" source="L_b7BaTxaajNw3vjl_Nh-5" target="L_b7BaTxaajNw3vjl_Nh-28" edge="1">
          <mxGeometry width="50" height="50" relative="1" as="geometry">
            <mxPoint x="10" y="-9.999999999999886" as="sourcePoint" />
            <mxPoint x="60" y="-59.999999999999886" as="targetPoint" />
          </mxGeometry>
        </mxCell>
        <mxCell id="L_b7BaTxaajNw3vjl_Nh-50" value="" style="endArrow=classic;html=1;rounded=0;" parent="1" source="L_b7BaTxaajNw3vjl_Nh-5" target="L_b7BaTxaajNw3vjl_Nh-1" edge="1">
          <mxGeometry width="50" height="50" relative="1" as="geometry">
            <mxPoint x="180" y="187" as="sourcePoint" />
            <mxPoint x="260" y="184" as="targetPoint" />
          </mxGeometry>
        </mxCell>
        <mxCell id="5AzXgrAlljaWgZERE3ZI-20" value="AppContext&lt;div&gt;&amp;lt;DbContext&amp;gt;&lt;/div&gt;" style="swimlane;fontStyle=1;align=center;verticalAlign=top;childLayout=stackLayout;horizontal=1;startSize=40;horizontalStack=0;resizeParent=1;resizeParentMax=0;resizeLast=0;collapsible=1;marginBottom=0;whiteSpace=wrap;html=1;" vertex="1" parent="1">
          <mxGeometry x="240" y="-280" width="160" height="232" as="geometry" />
        </mxCell>
        <mxCell id="5AzXgrAlljaWgZERE3ZI-9" value="+ DbSet&amp;lt;Tag&amp;gt; Tags&amp;nbsp;" style="text;strokeColor=none;fillColor=none;align=left;verticalAlign=top;spacingLeft=4;spacingRight=4;overflow=hidden;rotatable=0;points=[[0,0.5],[1,0.5]];portConstraint=eastwest;whiteSpace=wrap;html=1;" vertex="1" parent="5AzXgrAlljaWgZERE3ZI-20">
          <mxGeometry y="40" width="160" height="26" as="geometry" />
        </mxCell>
        <mxCell id="5AzXgrAlljaWgZERE3ZI-2" value="+ DbSet&amp;lt;Place&amp;gt; Places" style="text;strokeColor=none;fillColor=none;align=left;verticalAlign=top;spacingLeft=4;spacingRight=4;overflow=hidden;rotatable=0;points=[[0,0.5],[1,0.5]];portConstraint=eastwest;whiteSpace=wrap;html=1;" vertex="1" parent="5AzXgrAlljaWgZERE3ZI-20">
          <mxGeometry y="66" width="160" height="26" as="geometry" />
        </mxCell>
        <mxCell id="5AzXgrAlljaWgZERE3ZI-12" value="+ DbSet&amp;lt;CustomColor&amp;gt; CustomColors&amp;nbsp;" style="text;strokeColor=none;fillColor=none;align=left;verticalAlign=top;spacingLeft=4;spacingRight=4;overflow=hidden;rotatable=0;points=[[0,0.5],[1,0.5]];portConstraint=eastwest;whiteSpace=wrap;html=1;" vertex="1" parent="5AzXgrAlljaWgZERE3ZI-20">
          <mxGeometry y="92" width="160" height="50" as="geometry" />
        </mxCell>
        <mxCell id="5AzXgrAlljaWgZERE3ZI-7" value="+ DbSet&amp;lt;Transaction&amp;gt; Transactions&amp;nbsp;" style="text;strokeColor=none;fillColor=none;align=left;verticalAlign=top;spacingLeft=4;spacingRight=4;overflow=hidden;rotatable=0;points=[[0,0.5],[1,0.5]];portConstraint=eastwest;whiteSpace=wrap;html=1;" vertex="1" parent="5AzXgrAlljaWgZERE3ZI-20">
          <mxGeometry y="142" width="160" height="40" as="geometry" />
        </mxCell>
        <mxCell id="5AzXgrAlljaWgZERE3ZI-16" value="+ DbSet&amp;lt;Category&amp;gt; Categories&amp;nbsp;" style="text;strokeColor=none;fillColor=none;align=left;verticalAlign=top;spacingLeft=4;spacingRight=4;overflow=hidden;rotatable=0;points=[[0,0.5],[1,0.5]];portConstraint=eastwest;whiteSpace=wrap;html=1;" vertex="1" parent="5AzXgrAlljaWgZERE3ZI-20">
          <mxGeometry y="182" width="160" height="50" as="geometry" />
        </mxCell>
        <mxCell id="5AzXgrAlljaWgZERE3ZI-22" value="DataService" style="swimlane;fontStyle=1;align=center;verticalAlign=top;childLayout=stackLayout;horizontal=1;startSize=26;horizontalStack=0;resizeParent=1;resizeParentMax=0;resizeLast=0;collapsible=1;marginBottom=0;whiteSpace=wrap;html=1;" vertex="1" parent="1">
          <mxGeometry x="460" y="-720" width="200" height="472" as="geometry" />
        </mxCell>
        <mxCell id="5AzXgrAlljaWgZERE3ZI-23" value="- RO DataContext context" style="text;strokeColor=none;fillColor=none;align=left;verticalAlign=top;spacingLeft=4;spacingRight=4;overflow=hidden;rotatable=0;points=[[0,0.5],[1,0.5]];portConstraint=eastwest;whiteSpace=wrap;html=1;" vertex="1" parent="5AzXgrAlljaWgZERE3ZI-22">
          <mxGeometry y="26" width="200" height="34" as="geometry" />
        </mxCell>
        <mxCell id="5AzXgrAlljaWgZERE3ZI-30" value="" style="line;strokeWidth=1;fillColor=none;align=left;verticalAlign=middle;spacingTop=-1;spacingLeft=3;spacingRight=3;rotatable=0;labelPosition=right;points=[];portConstraint=eastwest;strokeColor=inherit;" vertex="1" parent="5AzXgrAlljaWgZERE3ZI-22">
          <mxGeometry y="60" width="200" height="8" as="geometry" />
        </mxCell>
        <mxCell id="5AzXgrAlljaWgZERE3ZI-24" value="+ saveTransaction(Transaction): void" style="text;strokeColor=none;fillColor=none;align=left;verticalAlign=top;spacingLeft=4;spacingRight=4;overflow=hidden;rotatable=0;points=[[0,0.5],[1,0.5]];portConstraint=eastwest;whiteSpace=wrap;html=1;" vertex="1" parent="5AzXgrAlljaWgZERE3ZI-22">
          <mxGeometry y="68" width="200" height="40" as="geometry" />
        </mxCell>
        <mxCell id="5AzXgrAlljaWgZERE3ZI-31" value="+ getTransactionById(Guid id): Transaction" style="text;strokeColor=none;fillColor=none;align=left;verticalAlign=top;spacingLeft=4;spacingRight=4;overflow=hidden;rotatable=0;points=[[0,0.5],[1,0.5]];portConstraint=eastwest;whiteSpace=wrap;html=1;" vertex="1" parent="5AzXgrAlljaWgZERE3ZI-22">
          <mxGeometry y="108" width="200" height="44" as="geometry" />
        </mxCell>
        <mxCell id="5AzXgrAlljaWgZERE3ZI-25" value="+ saveCategory(Category): void" style="text;strokeColor=none;fillColor=none;align=left;verticalAlign=top;spacingLeft=4;spacingRight=4;overflow=hidden;rotatable=0;points=[[0,0.5],[1,0.5]];portConstraint=eastwest;whiteSpace=wrap;html=1;" vertex="1" parent="5AzXgrAlljaWgZERE3ZI-22">
          <mxGeometry y="152" width="200" height="40" as="geometry" />
        </mxCell>
        <mxCell id="5AzXgrAlljaWgZERE3ZI-32" value="+ getCategory(Guid id): Category" style="text;strokeColor=none;fillColor=none;align=left;verticalAlign=top;spacingLeft=4;spacingRight=4;overflow=hidden;rotatable=0;points=[[0,0.5],[1,0.5]];portConstraint=eastwest;whiteSpace=wrap;html=1;" vertex="1" parent="5AzXgrAlljaWgZERE3ZI-22">
          <mxGeometry y="192" width="200" height="40" as="geometry" />
        </mxCell>
        <mxCell id="5AzXgrAlljaWgZERE3ZI-26" value="+ saveTag(Tag): void" style="text;strokeColor=none;fillColor=none;align=left;verticalAlign=top;spacingLeft=4;spacingRight=4;overflow=hidden;rotatable=0;points=[[0,0.5],[1,0.5]];portConstraint=eastwest;whiteSpace=wrap;html=1;" vertex="1" parent="5AzXgrAlljaWgZERE3ZI-22">
          <mxGeometry y="232" width="200" height="40" as="geometry" />
        </mxCell>
        <mxCell id="5AzXgrAlljaWgZERE3ZI-33" value="+ getTagById(Guid): Tag" style="text;strokeColor=none;fillColor=none;align=left;verticalAlign=top;spacingLeft=4;spacingRight=4;overflow=hidden;rotatable=0;points=[[0,0.5],[1,0.5]];portConstraint=eastwest;whiteSpace=wrap;html=1;" vertex="1" parent="5AzXgrAlljaWgZERE3ZI-22">
          <mxGeometry y="272" width="200" height="40" as="geometry" />
        </mxCell>
        <mxCell id="5AzXgrAlljaWgZERE3ZI-27" value="+ saveCustomColor(CustomColor): void" style="text;strokeColor=none;fillColor=none;align=left;verticalAlign=top;spacingLeft=4;spacingRight=4;overflow=hidden;rotatable=0;points=[[0,0.5],[1,0.5]];portConstraint=eastwest;whiteSpace=wrap;html=1;" vertex="1" parent="5AzXgrAlljaWgZERE3ZI-22">
          <mxGeometry y="312" width="200" height="40" as="geometry" />
        </mxCell>
        <mxCell id="5AzXgrAlljaWgZERE3ZI-34" value="+ getCustomColorById(Guid id): CustomColor" style="text;strokeColor=none;fillColor=none;align=left;verticalAlign=top;spacingLeft=4;spacingRight=4;overflow=hidden;rotatable=0;points=[[0,0.5],[1,0.5]];portConstraint=eastwest;whiteSpace=wrap;html=1;" vertex="1" parent="5AzXgrAlljaWgZERE3ZI-22">
          <mxGeometry y="352" width="200" height="40" as="geometry" />
        </mxCell>
        <mxCell id="5AzXgrAlljaWgZERE3ZI-28" value="+ savePlace(Place): void" style="text;strokeColor=none;fillColor=none;align=left;verticalAlign=top;spacingLeft=4;spacingRight=4;overflow=hidden;rotatable=0;points=[[0,0.5],[1,0.5]];portConstraint=eastwest;whiteSpace=wrap;html=1;" vertex="1" parent="5AzXgrAlljaWgZERE3ZI-22">
          <mxGeometry y="392" width="200" height="40" as="geometry" />
        </mxCell>
        <mxCell id="5AzXgrAlljaWgZERE3ZI-35" value="+ getPlaceById(Guid id): Place" style="text;strokeColor=none;fillColor=none;align=left;verticalAlign=top;spacingLeft=4;spacingRight=4;overflow=hidden;rotatable=0;points=[[0,0.5],[1,0.5]];portConstraint=eastwest;whiteSpace=wrap;html=1;" vertex="1" parent="5AzXgrAlljaWgZERE3ZI-22">
          <mxGeometry y="432" width="200" height="40" as="geometry" />
        </mxCell>
      </root>
    </mxGraphModel>
  </diagram>
</mxfile>
